{
  "accessors": [
    {
      "bufferView": 2,
      "componentType": 5126,
      "count": 65532,
      "max": [
        17.106422424316406,
        31.881637573242188,
        16.132633209228516
      ],
      "min": [
        0.0,
        0.0,
        1.1790103912353516
      ],
      "type": "VEC3"
    },
    {
      "bufferView": 2,
      "byteOffset": 786384,
      "componentType": 5126,
      "count": 65532,
      "max": [
        0.9999659061431885,
        0.999952495098114,
        0.9999989867210388
      ],
      "min": [
        -0.9999863505363464,
        -0.9999998807907104,
        -0.9999251365661621
      ],
      "type": "VEC3"
    },
    {
      "bufferView": 1,
      "componentType": 5126,
      "count": 65532,
      "max": [
        0.9979720115661621,
        0.9978500008583069
      ],
      "min": [
        0.00405499991029501,
        0.0040480000898242
      ],
      "type": "VEC2"
    },
    {
      "bufferView": 0,
      "componentType": 5125,
      "count": 350292,
      "type": "SCALAR"
    },
    {
      "bufferView": 2,
      "byteOffset": 1572768,
      "componentType": 5126,
      "count": 65532,
      "max": [
        16.094173431396484,
        31.865087509155273,
        18.939067840576172
      ],
      "min": [
        2.3359270095825195,
        2.8416004180908203,
        0.0
      ],
      "type": "VEC3"
    },
    {
      "bufferView": 2,
      "byteOffset": 2359152,
      "componentType": 5126,
      "count": 65532,
      "max": [
        0.9999995231628418,
        0.999945342540741,
        0.9999643564224243
      ],
      "min": [
        -0.999957263469696,
        -0.9999998807907104,
        -0.9999985694885254
      ],
      "type": "VEC3"
    },
    {
      "bufferView": 1,
      "byteOffset": 524256,
      "componentType": 5126,
      "count": 65532,
      "max": [
        0.9975919723510742,
        0.9956989884376526
      ],
      "min": [
        0.00405499991029501,
        0.0040480000898242
      ],
      "type": "VEC2"
    },
    {
      "bufferView": 0,
      "byteOffset": 1401168,
      "componentType": 5125,
      "count": 346791,
      "type": "SCALAR"
    },
    {
      "bufferView": 2,
      "byteOffset": 3145536,
      "componentType": 5126,
      "count": 65532,
      "max": [
        15.947603225708008,
        31.733022689819336,
        18.93345832824707
      ],
      "min": [
        2.312929630279541,
        2.811979293823242,
        2.7661657333374023
      ],
      "type": "VEC3"
    },
    {
      "bufferView": 2,
      "byteOffset": 3931920,
      "componentType": 5126,
      "count": 65532,
      "max": [
        0.9999961256980896,
        0.9998007416725159,
        0.9999954700469971
      ],
      "min": [
        -0.9999969005584717,
        -0.9999973773956299,
        -0.9999898672103882
      ],
      "type": "VEC3"
    },
    {
      "bufferView": 1,
      "byteOffset": 1048512,
      "componentType": 5126,
      "count": 65532,
      "max": [
        0.9979720115661621,
        0.9979760050773621
      ],
      "min": [
        0.00405499991029501,
        0.0040480000898242
      ],
      "type": "VEC2"
    },
    {
      "bufferView": 0,
      "byteOffset": 2788332,
      "componentType": 5125,
      "count": 342435,
      "type": "SCALAR"
    },
    {
      "bufferView": 2,
      "byteOffset": 4718304,
      "componentType": 5126,
      "count": 25885,
      "max": [
        8.114948272705078,
        24.050945281982422,
        16.007524490356445
      ],
      "min": [
        1.8075838088989258,
        7.879611968994141,
        8.359967231750488
      ],
      "type": "VEC3"
    },
    {
      "bufferView": 2,
      "byteOffset": 5028924,
      "componentType": 5126,
      "count": 25885,
      "max": [
        0.9992363452911377,
        0.9988600015640259,
        0.9999346137046814
      ],
      "min": [
        -0.9999740123748779,
        -0.9998198747634888,
        -0.999993622303009
      ],
      "type": "VEC3"
    },
    {
      "bufferView": 1,
      "byteOffset": 1572768,
      "componentType": 5126,
      "count": 25885,
      "max": [
        0.9978460073471069,
        0.9969639778137207
      ],
      "min": [
        0.00405499991029501,
        0.0040480000898242
      ],
      "type": "VEC2"
    },
    {
      "bufferView": 0,
      "byteOffset": 4158072,
      "componentType": 5125,
      "count": 133491,
      "type": "SCALAR"
    }
  ],
  "asset": {
    "extras": {
      "author": "Geoffrey Marchal (https://sketchfab.com/geoffreymarchal)",
      "license": "CC-BY-NC-SA-4.0 (http://creativecommons.org/licenses/by-nc-sa/4.0/)",
      "source": "https://sketchfab.com/3d-models/hermes-69407dad508347f393b8cb40511cdfb4",
      "title": "Hermes"
    },
    "generator": "Sketchfab-15.12.0",
    "version": "2.0"
  },
  "bufferViews": [
    {
      "buffer": 0,
      "byteLength": 4692036,
      "name": "floatBufferViews",
      "target": 34963
    },
    {
      "buffer": 0,
      "byteLength": 1779848,
      "byteOffset": 4692036,
      "byteStride": 8,
      "name": "floatBufferViews",
      "target": 34962
    },
    {
      "buffer": 0,
      "byteLength": 5339544,
      "byteOffset": 6471884,
      "byteStride": 12,
      "name": "floatBufferViews",
      "target": 34962
    }
  ],
  "buffers": [
    {
      "byteLength": 11811428,
      "uri": "scene.bin"
    }
  ],
  "extensionsUsed": [
    "KHR_materials_specular"
  ],
  "images": [
    {
      "uri": "textures/Material_0_baseColor.jpeg"
    },
    {
      "uri": "textures/Material_0_metallicRoughness.png"
    },
    {
      "uri": "textures/Material_0_specularf0.png"
    }
  ],
  "materials": [
    {
      "doubleSided": true,
      "extensions": {
        "KHR_materials_specular": {
          "specularColorFactor": [
            1.0,
            1.0,
            1.0
          ],
          "specularFactor": 1.0,
          "specularTexture": {
            "index": 2
          }
        }
      },
      "name": "Material_0",
      "pbrMetallicRoughness": {
        "baseColorTexture": {
          "index": 0
        },
        "metallicFactor": 0.0,
        "metallicRoughnessTexture": {
          "index": 1
        }
      }
    }
  ],
  "meshes": [
    {
      "name": "Object_0",
      "primitives": [
        {
          "attributes": {
            "NORMAL": 1,
            "POSITION": 0,
            "TEXCOORD_0": 2
          },
          "indices": 3,
          "material": 0,
          "mode": 4
        }
      ]
    },
    {
      "name": "Object_1",
      "primitives": [
        {
          "attributes": {
            "NORMAL": 5,
            "POSITION": 4,
            "TEXCOORD_0": 6
          },
          "indices": 7,
          "material": 0,
          "mode": 4
        }
      ]
    },
    {
      "name": "Object_2",
      "primitives": [
        {
          "attributes": {
            "NORMAL": 9,
            "POSITION": 8,
            "TEXCOORD_0": 10
          },
          "indices": 11,
          "material": 0,
          "mode": 4
        }
      ]
    },
    {
      "name": "Object_3",
      "primitives": [
        {
          "attributes": {
            "NORMAL": 13,
            "POSITION": 12,
            "TEXCOORD_0": 14
          },
          "indices": 15,
          "material": 0,
          "mode": 4
        }
      ]
    }
  ],
  "nodes": [
    {
      "children": [
        1
      ],
      "matrix": [
        0.32398802042007446,
        9.904548158146646e-17,
        -0.9460611939430237,
        0.0,
        -1.1102230246251565e-16,
        -1.0,
        -1.1102230246251565e-16,
        0.0,
        -0.9460611939430237,
        1.2745094322587624e-16,
        -0.32398802042007446,
        0.0,
        0.0,
        0.0,
        0.0,
        1.0
      ],
      "name": "Sketchfab_model"
    },
    {
      "children": [
        2,
        3,
        4,
        5
      ],
      "matrix": [
        1.0,
        0.0,
        0.0,
        0.0,
        0.0,
        1.0,
        0.0,
        0.0,
        0.0,
        0.0,
        1.0,
        0.0,
        -8.0845308303833,
        -30.600872039794922,
        -10.144168853759766,
        1.0
      ],
      "name": "hermesyyy.obj.cleaner.gles"
    },
    {
      "mesh": 0,
      "name": "Object_2"
    },
    {
      "mesh": 1,
      "name": "Object_3"
    },
    {
      "mesh": 2,
      "name": "Object_4"
    },
    {
      "mesh": 3,
      "name": "Object_5"
    }
  ],
  "samplers": [
    {
      "magFilter": 9729,
      "minFilter": 9987,
      "wrapS": 10497,
      "wrapT": 10497
    },
    {
      "magFilter": 9728,
      "minFilter": 9728,
      "wrapS": 10497,
      "wrapT": 10497
    }
  ],
  "scene": 0,
  "scenes": [
    {
      "name": "Sketchfab_Scene",
      "nodes": [
        0
      ]
    }
  ],
  "textures": [
    {
      "sampler": 0,
      "source": 0
    },
    {
      "sampler": 1,
      "source": 1
    },
    {
      "sampler": 1,
      "source": 2
    }
  ]
}
